<svg id="svg" xmlns="http://www.w3.org/2000/svg" xmlns:xlink="http://www.w3.org/1999/xlink" width="400" height="400" viewBox="0, 0, 400,400"><g id="svgg"><path id="path0" d="M241.652 97.600 C 238.528 98.338,237.398 101.889,239.498 104.366 L 240.656 105.733 246.028 106.099 C 248.983 106.300,251.571 106.630,251.780 106.832 C 251.989 107.035,252.550 107.200,253.027 107.200 C 254.688 107.200,260.997 109.964,265.688 112.748 C 269.443 114.976,276.191 121.878,278.352 125.700 C 278.818 126.525,279.560 127.835,280.000 128.612 C 280.440 129.389,280.800 130.289,280.800 130.612 C 280.800 130.935,280.935 131.201,281.100 131.202 C 281.265 131.203,281.824 132.598,282.342 134.302 C 282.860 136.006,283.445 137.922,283.642 138.560 C 283.839 139.198,284.000 140.399,284.000 141.229 C 284.000 146.979,286.711 150.432,290.111 149.012 C 292.621 147.963,293.762 142.847,292.443 138.560 C 292.247 137.922,291.858 136.320,291.579 135.000 C 291.300 133.680,290.920 132.429,290.736 132.220 C 290.551 132.011,290.400 131.514,290.400 131.116 C 290.400 129.710,287.175 123.123,284.682 119.436 C 278.660 110.532,269.149 103.229,259.400 100.025 C 257.860 99.519,256.187 98.946,255.681 98.752 C 255.176 98.559,254.186 98.399,253.481 98.398 C 252.777 98.397,251.570 98.234,250.800 98.036 C 248.711 97.500,243.190 97.236,241.652 97.600 M240.090 112.785 C 235.439 115.680,238.174 120.607,244.600 120.909 C 250.186 121.171,254.527 122.747,259.053 126.157 C 265.076 130.694,269.600 138.874,269.600 145.226 C 269.600 150.371,275.608 152.639,277.834 148.334 C 279.444 145.220,276.125 131.845,272.905 128.471 C 272.627 128.181,272.400 127.789,272.400 127.600 C 272.400 127.411,272.174 127.019,271.898 126.729 C 271.622 126.438,270.588 125.210,269.600 124.000 C 268.612 122.790,267.532 121.570,267.202 121.289 C 266.400 120.608,262.017 117.463,261.449 117.162 C 261.202 117.031,260.570 116.699,260.045 116.425 C 259.520 116.150,258.530 115.616,257.845 115.238 C 253.385 112.778,242.514 111.276,240.090 112.785 M240.523 127.258 C 235.518 128.641,237.100 135.354,242.414 135.279 C 243.820 135.259,245.156 135.381,245.385 135.549 C 245.613 135.718,246.610 136.111,247.600 136.423 C 251.687 137.709,255.190 143.080,255.198 148.069 C 255.204 152.407,261.105 153.337,263.020 149.302 C 266.015 142.990,256.569 128.000,249.596 128.000 C 249.129 128.000,248.444 127.845,248.074 127.655 C 247.045 127.127,241.962 126.860,240.523 127.258 M137.620 134.171 C 136.074 135.027,136.058 135.221,136.015 154.600 C 135.985 168.403,135.853 173.156,135.487 173.624 C 135.219 173.968,131.760 176.835,127.800 179.997 C 113.031 191.788,113.395 191.166,117.950 196.825 C 122.205 202.113,123.671 202.676,126.732 200.196 C 127.908 199.244,135.596 192.898,145.200 184.953 C 152.856 178.620,161.006 172.008,162.461 170.951 C 163.103 170.484,164.297 169.487,165.114 168.736 C 165.931 167.985,167.009 167.088,167.509 166.742 C 168.008 166.396,169.088 165.496,169.909 164.742 C 170.729 163.988,171.777 163.107,172.237 162.785 C 172.698 162.463,173.944 161.480,175.007 160.600 C 177.868 158.232,182.373 154.507,185.529 151.900 C 189.027 149.011,188.503 148.912,193.578 153.418 C 194.580 154.308,196.390 155.836,197.600 156.813 C 198.810 157.790,199.890 158.686,200.000 158.805 C 200.110 158.924,201.010 159.643,202.000 160.405 C 202.990 161.166,204.041 162.019,204.335 162.300 C 204.629 162.582,205.529 163.304,206.335 163.906 C 207.141 164.508,208.041 165.228,208.335 165.506 C 208.629 165.784,209.526 166.504,210.329 167.106 C 211.132 167.708,212.241 168.586,212.794 169.057 C 214.380 170.410,231.125 184.259,233.933 186.541 C 236.811 188.880,243.386 194.341,247.098 197.477 C 253.083 202.533,253.994 202.657,257.542 198.900 C 263.751 192.325,263.676 190.792,256.906 185.880 C 255.785 185.067,252.629 182.510,241.600 173.482 C 239.290 171.591,236.439 169.269,235.263 168.322 C 234.088 167.375,232.176 165.790,231.013 164.800 C 229.851 163.810,227.242 161.650,225.215 160.000 C 223.189 158.350,221.141 156.665,220.665 156.255 C 220.189 155.845,219.170 155.035,218.400 154.455 C 217.630 153.875,216.749 153.162,216.443 152.872 C 215.785 152.248,210.754 148.147,209.248 147.007 C 208.672 146.570,207.840 145.878,207.400 145.469 C 198.701 137.370,192.924 133.662,188.949 133.626 C 184.115 133.582,183.011 134.291,168.229 146.917 C 167.146 147.843,165.864 148.870,165.382 149.200 C 164.899 149.530,163.652 150.565,162.611 151.500 C 159.518 154.277,159.418 154.017,159.804 144.223 C 160.130 135.971,159.883 134.856,157.552 134.043 C 155.610 133.366,138.880 133.473,137.620 134.171 M237.649 141.589 C 232.712 142.797,230.127 149.487,232.783 154.182 C 233.874 156.109,236.302 158.400,237.255 158.400 C 237.639 158.400,238.064 158.580,238.200 158.800 C 238.967 160.042,245.378 158.909,247.065 157.233 C 253.558 150.786,246.690 139.377,237.649 141.589 M186.400 158.400 C 185.410 159.267,184.413 159.981,184.185 159.988 C 183.957 159.995,182.883 160.900,181.800 162.000 C 180.717 163.100,179.637 164.000,179.400 164.000 C 179.163 164.000,178.083 164.900,177.000 166.000 C 175.917 167.100,174.835 168.000,174.596 168.000 C 174.358 168.000,173.459 168.720,172.600 169.600 C 171.741 170.480,170.822 171.200,170.558 171.200 C 170.294 171.200,169.206 172.097,168.139 173.194 C 167.073 174.290,165.995 175.190,165.743 175.194 C 165.492 175.197,164.382 176.100,163.276 177.200 C 162.171 178.300,161.057 179.200,160.802 179.200 C 160.546 179.200,159.646 179.920,158.800 180.800 C 157.954 181.680,157.041 182.400,156.769 182.400 C 156.497 182.400,155.569 183.120,154.707 184.000 C 153.844 184.880,152.882 185.600,152.569 185.600 C 152.256 185.600,152.000 185.874,152.000 186.210 C 152.000 186.545,151.595 186.978,151.100 187.171 C 150.605 187.364,149.580 188.170,148.822 188.961 C 148.063 189.753,147.247 190.400,147.006 190.400 C 146.766 190.400,145.683 191.300,144.600 192.400 C 143.517 193.500,142.432 194.400,142.190 194.400 C 141.948 194.400,141.221 194.956,140.575 195.636 C 139.929 196.315,138.897 197.134,138.282 197.455 C 135.429 198.945,135.603 196.304,135.601 238.137 C 135.600 275.339,135.607 275.677,136.400 275.884 C 136.840 275.999,137.200 276.326,137.200 276.611 C 137.200 276.896,138.135 277.595,139.279 278.164 L 141.357 279.200 159.030 279.200 C 173.315 279.200,176.787 279.097,177.147 278.664 C 177.456 278.291,177.624 272.459,177.696 259.564 L 177.800 241.000 188.800 241.000 L 199.800 241.000 199.904 259.564 C 199.976 272.459,200.144 278.291,200.453 278.664 C 201.010 279.336,235.787 279.468,236.200 278.800 C 236.336 278.580,236.850 278.400,237.342 278.400 C 237.852 278.400,238.876 277.746,239.719 276.883 L 241.200 275.366 241.200 237.423 L 241.200 199.480 239.172 197.536 C 238.057 196.467,236.662 195.340,236.072 195.032 C 235.482 194.724,234.471 193.915,233.825 193.236 C 233.179 192.556,232.452 192.000,232.210 192.000 C 231.968 192.000,230.883 191.100,229.800 190.000 C 228.717 188.900,227.637 188.000,227.400 188.000 C 227.163 188.000,226.083 187.100,225.000 186.000 C 223.917 184.900,222.826 184.000,222.577 184.000 C 222.328 184.000,221.241 183.100,220.162 182.001 C 219.083 180.901,217.963 180.001,217.674 180.001 C 217.385 180.000,216.271 179.100,215.200 178.000 C 214.129 176.900,213.027 176.000,212.752 176.000 C 212.478 176.000,211.385 175.100,210.325 174.000 C 209.265 172.900,208.165 172.000,207.880 172.000 C 207.595 172.000,206.659 171.280,205.800 170.400 C 204.941 169.520,204.042 168.800,203.804 168.800 C 203.565 168.800,202.483 167.900,201.400 166.800 C 200.317 165.700,199.237 164.800,199.000 164.800 C 198.763 164.800,197.683 163.900,196.600 162.800 C 195.517 161.700,194.434 160.800,194.194 160.800 C 193.953 160.800,193.137 160.156,192.378 159.369 C 191.335 158.286,188.763 156.692,188.251 156.812 C 188.223 156.819,187.390 157.533,186.400 158.400 " stroke="none" fill="#fafafb" fill-rule="evenodd"></path><path id="path1" d="M184.200 56.000 C 184.064 56.220,182.624 56.400,181.000 56.400 C 179.376 56.400,177.936 56.580,177.800 56.800 C 177.664 57.020,176.573 57.200,175.376 57.200 C 174.179 57.200,173.200 57.380,173.200 57.600 C 173.200 57.820,172.300 58.000,171.200 58.000 C 170.100 58.000,169.200 58.180,169.200 58.400 C 169.200 58.620,168.491 58.800,167.624 58.800 C 166.757 58.800,165.936 58.980,165.800 59.200 C 165.664 59.420,164.933 59.600,164.176 59.600 C 163.419 59.600,162.800 59.780,162.800 60.000 C 162.800 60.220,162.080 60.400,161.200 60.400 C 160.320 60.400,159.600 60.580,159.600 60.800 C 159.600 61.020,159.060 61.200,158.400 61.200 C 157.740 61.200,157.200 61.380,157.200 61.600 C 157.200 61.820,156.660 62.000,156.000 62.000 C 155.340 62.000,154.800 62.180,154.800 62.400 C 154.800 62.620,154.260 62.800,153.600 62.800 C 152.940 62.800,152.400 62.980,152.400 63.200 C 152.400 63.420,151.961 63.600,151.424 63.600 C 150.887 63.600,150.336 63.780,150.200 64.000 C 150.064 64.220,149.603 64.400,149.176 64.400 C 148.749 64.400,148.400 64.580,148.400 64.800 C 148.400 65.020,147.860 65.200,147.200 65.200 C 146.540 65.200,146.000 65.380,146.000 65.600 C 146.000 65.820,145.640 66.000,145.200 66.000 C 144.760 66.000,144.400 66.180,144.400 66.400 C 144.400 66.620,144.128 66.800,143.795 66.800 C 143.462 66.800,142.832 66.980,142.395 67.200 C 141.958 67.420,141.242 67.780,140.805 68.000 C 140.368 68.220,139.738 68.400,139.405 68.400 C 139.072 68.400,138.800 68.580,138.800 68.800 C 138.800 69.020,138.440 69.200,138.000 69.200 C 137.560 69.200,137.200 69.380,137.200 69.600 C 137.200 69.820,136.840 70.000,136.400 70.000 C 135.960 70.000,135.600 70.180,135.600 70.400 C 135.600 70.620,135.240 70.800,134.800 70.800 C 134.360 70.800,134.000 70.980,134.000 71.200 C 134.000 71.420,133.764 71.600,133.475 71.600 C 133.187 71.600,132.564 71.960,132.092 72.400 C 131.620 72.840,130.956 73.200,130.617 73.200 C 130.278 73.200,130.000 73.380,130.000 73.600 C 130.000 73.820,129.640 74.000,129.200 74.000 C 128.760 74.000,128.400 74.180,128.400 74.400 C 128.400 74.620,128.164 74.800,127.875 74.800 C 127.587 74.800,126.964 75.160,126.492 75.600 C 126.020 76.040,125.396 76.400,125.105 76.400 C 124.814 76.400,124.317 76.760,124.000 77.200 C 123.683 77.640,123.143 78.000,122.800 78.000 C 122.457 78.000,121.917 78.360,121.600 78.800 C 121.283 79.240,120.743 79.600,120.400 79.600 C 120.057 79.600,119.517 79.960,119.200 80.400 C 118.883 80.840,118.420 81.200,118.171 81.200 C 117.922 81.200,117.154 81.740,116.463 82.400 C 115.772 83.060,115.047 83.600,114.852 83.600 C 114.656 83.600,113.755 84.320,112.848 85.200 C 111.941 86.080,111.046 86.800,110.859 86.800 C 109.873 86.800,92.945 103.767,92.449 105.252 C 92.367 105.500,91.602 106.422,90.749 107.300 C 89.897 108.178,89.200 109.056,89.200 109.252 C 89.200 109.447,88.660 110.172,88.000 110.863 C 87.340 111.554,86.800 112.322,86.800 112.571 C 86.800 112.820,86.440 113.283,86.000 113.600 C 85.560 113.917,85.200 114.457,85.200 114.800 C 85.200 115.143,84.840 115.683,84.400 116.000 C 83.960 116.317,83.600 116.857,83.600 117.200 C 83.600 117.543,83.240 118.083,82.800 118.400 C 82.360 118.717,82.000 119.214,82.000 119.505 C 82.000 119.796,81.640 120.420,81.200 120.892 C 80.760 121.364,80.400 121.987,80.400 122.275 C 80.400 122.564,80.220 122.800,80.000 122.800 C 79.780 122.800,79.600 123.145,79.600 123.567 C 79.600 123.988,79.465 124.393,79.300 124.467 C 78.924 124.634,77.625 126.764,77.329 127.700 C 77.207 128.085,76.948 128.400,76.753 128.400 C 76.559 128.400,76.400 128.760,76.400 129.200 C 76.400 129.640,76.220 130.000,76.000 130.000 C 75.780 130.000,75.600 130.360,75.600 130.800 C 75.600 131.240,75.420 131.600,75.200 131.600 C 74.980 131.600,74.800 131.960,74.800 132.400 C 74.800 132.840,74.620 133.200,74.400 133.200 C 74.180 133.200,74.000 133.560,74.000 134.000 C 74.000 134.440,73.820 134.800,73.600 134.800 C 73.380 134.800,73.200 135.149,73.200 135.576 C 73.200 136.003,73.020 136.464,72.800 136.600 C 72.580 136.736,72.400 137.287,72.400 137.824 C 72.400 138.361,72.220 138.800,72.000 138.800 C 71.780 138.800,71.600 139.160,71.600 139.600 C 71.600 140.040,71.420 140.400,71.200 140.400 C 70.980 140.400,70.800 140.839,70.800 141.376 C 70.800 141.913,70.620 142.464,70.400 142.600 C 70.180 142.736,70.000 143.197,70.000 143.624 C 70.000 144.051,69.820 144.400,69.600 144.400 C 69.380 144.400,69.200 144.940,69.200 145.600 C 69.200 146.260,69.020 146.800,68.800 146.800 C 68.580 146.800,68.400 147.340,68.400 148.000 C 68.400 148.660,68.220 149.200,68.000 149.200 C 67.780 149.200,67.600 149.740,67.600 150.400 C 67.600 151.060,67.420 151.600,67.200 151.600 C 66.980 151.600,66.800 152.129,66.800 152.776 C 66.800 153.423,66.620 154.064,66.400 154.200 C 66.180 154.336,66.000 155.067,66.000 155.824 C 66.000 156.581,65.820 157.200,65.600 157.200 C 65.380 157.200,65.200 157.819,65.200 158.576 C 65.200 159.333,65.020 160.064,64.800 160.200 C 64.580 160.336,64.400 161.157,64.400 162.024 C 64.400 162.891,64.220 163.600,64.000 163.600 C 63.780 163.600,63.600 164.500,63.600 165.600 C 63.600 166.700,63.420 167.600,63.200 167.600 C 62.978 167.600,62.800 168.667,62.800 170.000 C 62.800 171.333,62.622 172.400,62.400 172.400 C 62.169 172.400,62.000 173.659,62.000 175.376 C 62.000 177.013,61.820 178.464,61.600 178.600 C 61.053 178.938,61.053 208.262,61.600 208.600 C 61.820 208.736,62.000 210.176,62.000 211.800 C 62.000 213.424,62.180 214.864,62.400 215.000 C 62.620 215.136,62.800 216.227,62.800 217.424 C 62.800 218.621,62.980 219.600,63.200 219.600 C 63.420 219.600,63.600 220.500,63.600 221.600 C 63.600 222.700,63.780 223.600,64.000 223.600 C 64.220 223.600,64.400 224.309,64.400 225.176 C 64.400 226.043,64.580 226.864,64.800 227.000 C 65.020 227.136,65.200 227.867,65.200 228.624 C 65.200 229.381,65.380 230.000,65.600 230.000 C 65.820 230.000,66.000 230.720,66.000 231.600 C 66.000 232.480,66.180 233.200,66.400 233.200 C 66.620 233.200,66.800 233.740,66.800 234.400 C 66.800 235.060,66.980 235.600,67.200 235.600 C 67.420 235.600,67.600 236.140,67.600 236.800 C 67.600 237.460,67.780 238.000,68.000 238.000 C 68.220 238.000,68.400 238.540,68.400 239.200 C 68.400 239.860,68.580 240.400,68.800 240.400 C 69.020 240.400,69.200 240.940,69.200 241.600 C 69.200 242.260,69.380 242.800,69.600 242.800 C 69.820 242.800,70.000 243.149,70.000 243.576 C 70.000 244.003,70.180 244.464,70.400 244.600 C 70.620 244.736,70.800 245.287,70.800 245.824 C 70.800 246.361,70.980 246.800,71.200 246.800 C 71.420 246.800,71.600 247.160,71.600 247.600 C 71.600 248.040,71.780 248.400,72.000 248.400 C 72.220 248.400,72.400 248.839,72.400 249.376 C 72.400 249.913,72.580 250.464,72.800 250.600 C 73.020 250.736,73.200 251.197,73.200 251.624 C 73.200 252.051,73.380 252.400,73.600 252.400 C 73.820 252.400,74.000 252.760,74.000 253.200 C 74.000 253.640,74.180 254.000,74.400 254.000 C 74.620 254.000,74.800 254.360,74.800 254.800 C 74.800 255.240,74.980 255.600,75.200 255.600 C 75.420 255.600,75.600 255.960,75.600 256.400 C 75.600 256.840,75.780 257.200,76.000 257.200 C 76.220 257.200,76.400 257.545,76.400 257.967 C 76.400 258.388,76.535 258.793,76.700 258.867 C 77.076 259.034,78.375 261.164,78.671 262.100 C 78.793 262.485,79.052 262.800,79.247 262.800 C 79.441 262.800,79.600 263.160,79.600 263.600 C 79.600 264.040,79.780 264.400,80.000 264.400 C 80.220 264.400,80.400 264.636,80.400 264.925 C 80.400 265.213,80.760 265.836,81.200 266.308 C 81.640 266.780,82.000 267.404,82.000 267.695 C 82.000 267.986,82.360 268.483,82.800 268.800 C 83.240 269.117,83.600 269.657,83.600 270.000 C 83.600 270.343,83.960 270.883,84.400 271.200 C 84.840 271.517,85.200 272.057,85.200 272.400 C 85.200 272.743,85.560 273.283,86.000 273.600 C 86.440 273.917,86.800 274.380,86.800 274.629 C 86.800 274.878,87.340 275.646,88.000 276.337 C 88.660 277.028,89.200 277.753,89.200 277.948 C 89.200 278.144,89.920 279.045,90.800 279.952 C 91.680 280.859,92.400 281.754,92.400 281.941 C 92.400 282.907,109.893 300.400,110.859 300.400 C 111.046 300.400,111.941 301.120,112.848 302.000 C 113.755 302.880,114.656 303.600,114.852 303.600 C 115.047 303.600,115.772 304.140,116.463 304.800 C 117.154 305.460,117.922 306.000,118.171 306.000 C 118.420 306.000,118.883 306.360,119.200 306.800 C 119.517 307.240,120.057 307.600,120.400 307.600 C 120.743 307.600,121.283 307.960,121.600 308.400 C 121.917 308.840,122.457 309.200,122.800 309.200 C 123.143 309.200,123.683 309.560,124.000 310.000 C 124.317 310.440,124.814 310.800,125.105 310.800 C 125.396 310.800,126.020 311.160,126.492 311.600 C 126.964 312.040,127.587 312.400,127.875 312.400 C 128.164 312.400,128.400 312.580,128.400 312.800 C 128.400 313.020,128.760 313.200,129.200 313.200 C 129.640 313.200,130.000 313.359,130.000 313.553 C 130.000 313.748,130.315 314.007,130.700 314.129 C 131.636 314.425,133.766 315.724,133.933 316.100 C 134.007 316.265,134.412 316.400,134.833 316.400 C 135.255 316.400,135.600 316.580,135.600 316.800 C 135.600 317.020,135.960 317.200,136.400 317.200 C 136.840 317.200,137.200 317.380,137.200 317.600 C 137.200 317.820,137.560 318.000,138.000 318.000 C 138.440 318.000,138.800 318.180,138.800 318.400 C 138.800 318.620,139.072 318.800,139.405 318.800 C 139.993 318.800,140.418 318.967,142.295 319.938 C 142.787 320.192,143.462 320.400,143.795 320.400 C 144.128 320.400,144.400 320.580,144.400 320.800 C 144.400 321.020,144.760 321.200,145.200 321.200 C 145.640 321.200,146.000 321.380,146.000 321.600 C 146.000 321.820,146.439 322.000,146.976 322.000 C 147.513 322.000,148.064 322.180,148.200 322.400 C 148.336 322.620,148.797 322.800,149.224 322.800 C 149.651 322.800,150.000 322.980,150.000 323.200 C 150.000 323.420,150.540 323.600,151.200 323.600 C 151.860 323.600,152.400 323.780,152.400 324.000 C 152.400 324.220,152.940 324.400,153.600 324.400 C 154.260 324.400,154.800 324.580,154.800 324.800 C 154.800 325.020,155.340 325.200,156.000 325.200 C 156.660 325.200,157.200 325.380,157.200 325.600 C 157.200 325.820,157.740 326.000,158.400 326.000 C 159.060 326.000,159.600 326.180,159.600 326.400 C 159.600 326.620,160.320 326.800,161.200 326.800 C 162.080 326.800,162.800 326.980,162.800 327.200 C 162.800 327.420,163.419 327.600,164.176 327.600 C 164.933 327.600,165.664 327.780,165.800 328.000 C 165.936 328.220,166.757 328.400,167.624 328.400 C 168.491 328.400,169.200 328.580,169.200 328.800 C 169.200 329.020,170.100 329.200,171.200 329.200 C 172.300 329.200,173.200 329.380,173.200 329.600 C 173.200 329.820,174.179 330.000,175.376 330.000 C 176.573 330.000,177.664 330.180,177.800 330.400 C 177.936 330.620,179.376 330.800,181.000 330.800 C 182.624 330.800,184.064 330.980,184.200 331.200 C 184.538 331.747,213.862 331.747,214.200 331.200 C 214.336 330.980,215.776 330.800,217.400 330.800 C 219.024 330.800,220.464 330.620,220.600 330.400 C 220.736 330.180,221.827 330.000,223.024 330.000 C 224.221 330.000,225.200 329.820,225.200 329.600 C 225.200 329.380,226.100 329.200,227.200 329.200 C 228.300 329.200,229.200 329.020,229.200 328.800 C 229.200 328.580,229.909 328.400,230.776 328.400 C 231.643 328.400,232.464 328.220,232.600 328.000 C 232.736 327.780,233.467 327.600,234.224 327.600 C 234.981 327.600,235.600 327.420,235.600 327.200 C 235.600 326.980,236.320 326.800,237.200 326.800 C 238.080 326.800,238.800 326.620,238.800 326.400 C 238.800 326.180,239.340 326.000,240.000 326.000 C 240.660 326.000,241.200 325.820,241.200 325.600 C 241.200 325.380,241.740 325.200,242.400 325.200 C 243.060 325.200,243.600 325.020,243.600 324.800 C 243.600 324.580,244.140 324.400,244.800 324.400 C 245.460 324.400,246.000 324.220,246.000 324.000 C 246.000 323.780,246.540 323.600,247.200 323.600 C 247.860 323.600,248.400 323.420,248.400 323.200 C 248.400 322.980,248.749 322.800,249.176 322.800 C 249.603 322.800,250.064 322.620,250.200 322.400 C 250.336 322.180,250.887 322.000,251.424 322.000 C 251.961 322.000,252.400 321.820,252.400 321.600 C 252.400 321.380,252.760 321.200,253.200 321.200 C 253.640 321.200,254.000 321.020,254.000 320.800 C 254.000 320.580,254.272 320.400,254.605 320.400 C 254.938 320.400,255.568 320.220,256.005 320.000 C 256.442 319.780,257.158 319.420,257.595 319.200 C 258.032 318.980,258.662 318.800,258.995 318.800 C 259.328 318.800,259.600 318.620,259.600 318.400 C 259.600 318.180,259.960 318.000,260.400 318.000 C 260.840 318.000,261.200 317.820,261.200 317.600 C 261.200 317.380,261.560 317.200,262.000 317.200 C 262.440 317.200,262.800 317.020,262.800 316.800 C 262.800 316.580,263.145 316.400,263.567 316.400 C 263.988 316.400,264.393 316.265,264.467 316.100 C 264.634 315.724,266.764 314.425,267.700 314.129 C 268.085 314.007,268.400 313.748,268.400 313.553 C 268.400 313.359,268.760 313.200,269.200 313.200 C 269.640 313.200,270.000 313.020,270.000 312.800 C 270.000 312.580,270.236 312.400,270.525 312.400 C 270.813 312.400,271.436 312.040,271.908 311.600 C 272.380 311.160,273.004 310.800,273.295 310.800 C 273.586 310.800,274.083 310.440,274.400 310.000 C 274.717 309.560,275.257 309.200,275.600 309.200 C 275.943 309.200,276.483 308.840,276.800 308.400 C 277.117 307.960,277.657 307.600,278.000 307.600 C 278.343 307.600,278.883 307.240,279.200 306.800 C 279.517 306.360,279.980 306.000,280.229 306.000 C 280.478 306.000,281.246 305.460,281.937 304.800 C 282.628 304.140,283.353 303.600,283.548 303.600 C 283.744 303.600,284.645 302.880,285.552 302.000 C 286.459 301.120,287.354 300.400,287.541 300.400 C 288.507 300.400,306.000 282.907,306.000 281.941 C 306.000 281.754,306.720 280.859,307.600 279.952 C 308.480 279.045,309.200 278.144,309.200 277.948 C 309.200 277.753,309.740 277.028,310.400 276.337 C 311.060 275.646,311.600 274.878,311.600 274.629 C 311.600 274.380,311.960 273.917,312.400 273.600 C 312.840 273.283,313.200 272.743,313.200 272.400 C 313.200 272.057,313.560 271.517,314.000 271.200 C 314.440 270.883,314.800 270.343,314.800 270.000 C 314.800 269.657,315.160 269.117,315.600 268.800 C 316.040 268.483,316.400 267.986,316.400 267.695 C 316.400 267.404,316.760 266.780,317.200 266.308 C 317.640 265.836,318.000 265.213,318.000 264.925 C 318.000 264.636,318.180 264.400,318.400 264.400 C 318.620 264.400,318.800 264.040,318.800 263.600 C 318.800 263.160,318.959 262.800,319.153 262.800 C 319.348 262.800,319.607 262.485,319.729 262.100 C 320.025 261.164,321.324 259.034,321.700 258.867 C 321.865 258.793,322.000 258.388,322.000 257.967 C 322.000 257.545,322.180 257.200,322.400 257.200 C 322.620 257.200,322.800 256.840,322.800 256.400 C 322.800 255.960,322.980 255.600,323.200 255.600 C 323.420 255.600,323.600 255.240,323.600 254.800 C 323.600 254.360,323.780 254.000,324.000 254.000 C 324.220 254.000,324.400 253.640,324.400 253.200 C 324.400 252.760,324.580 252.400,324.800 252.400 C 325.020 252.400,325.200 252.051,325.200 251.624 C 325.200 251.197,325.380 250.736,325.600 250.600 C 325.820 250.464,326.000 249.913,326.000 249.376 C 326.000 248.839,326.180 248.400,326.400 248.400 C 326.620 248.400,326.800 248.040,326.800 247.600 C 326.800 247.160,326.980 246.800,327.200 246.800 C 327.420 246.800,327.600 246.361,327.600 245.824 C 327.600 245.287,327.780 244.736,328.000 244.600 C 328.220 244.464,328.400 244.003,328.400 243.576 C 328.400 243.149,328.580 242.800,328.800 242.800 C 329.020 242.800,329.200 242.260,329.200 241.600 C 329.200 240.940,329.380 240.400,329.600 240.400 C 329.820 240.400,330.000 239.860,330.000 239.200 C 330.000 238.540,330.180 238.000,330.400 238.000 C 330.620 238.000,330.800 237.460,330.800 236.800 C 330.800 236.140,330.980 235.600,331.200 235.600 C 331.420 235.600,331.600 235.060,331.600 234.400 C 331.600 233.740,331.780 233.200,332.000 233.200 C 332.220 233.200,332.400 232.480,332.400 231.600 C 332.400 230.720,332.580 230.000,332.800 230.000 C 333.020 230.000,333.200 229.381,333.200 228.624 C 333.200 227.867,333.380 227.136,333.600 227.000 C 333.820 226.864,334.000 226.043,334.000 225.176 C 334.000 224.309,334.180 223.600,334.400 223.600 C 334.620 223.600,334.800 222.700,334.800 221.600 C 334.800 220.500,334.980 219.600,335.200 219.600 C 335.420 219.600,335.600 218.621,335.600 217.424 C 335.600 216.227,335.780 215.136,336.000 215.000 C 336.220 214.864,336.400 213.424,336.400 211.800 C 336.400 210.176,336.580 208.736,336.800 208.600 C 337.055 208.442,337.200 203.004,337.200 193.600 C 337.200 184.196,337.055 178.758,336.800 178.600 C 336.580 178.464,336.400 177.024,336.400 175.400 C 336.400 173.776,336.220 172.336,336.000 172.200 C 335.780 172.064,335.600 170.973,335.600 169.776 C 335.600 168.579,335.420 167.600,335.200 167.600 C 334.980 167.600,334.800 166.700,334.800 165.600 C 334.800 164.500,334.620 163.600,334.400 163.600 C 334.180 163.600,334.000 162.891,334.000 162.024 C 334.000 161.157,333.820 160.336,333.600 160.200 C 333.380 160.064,333.200 159.333,333.200 158.576 C 333.200 157.819,333.020 157.200,332.800 157.200 C 332.580 157.200,332.400 156.581,332.400 155.824 C 332.400 155.067,332.220 154.336,332.000 154.200 C 331.780 154.064,331.600 153.423,331.600 152.776 C 331.600 152.129,331.420 151.600,331.200 151.600 C 330.980 151.600,330.800 151.060,330.800 150.400 C 330.800 149.740,330.620 149.200,330.400 149.200 C 330.180 149.200,330.000 148.660,330.000 148.000 C 330.000 147.340,329.820 146.800,329.600 146.800 C 329.380 146.800,329.200 146.260,329.200 145.600 C 329.200 144.940,329.020 144.400,328.800 144.400 C 328.580 144.400,328.400 144.051,328.400 143.624 C 328.400 143.197,328.220 142.736,328.000 142.600 C 327.780 142.464,327.600 141.913,327.600 141.376 C 327.600 140.839,327.420 140.400,327.200 140.400 C 326.980 140.400,326.800 140.040,326.800 139.600 C 326.800 139.160,326.620 138.800,326.400 138.800 C 326.180 138.800,326.000 138.361,326.000 137.824 C 326.000 137.287,325.820 136.736,325.600 136.600 C 325.380 136.464,325.200 136.003,325.200 135.576 C 325.200 135.149,325.020 134.800,324.800 134.800 C 324.580 134.800,324.400 134.440,324.400 134.000 C 324.400 133.560,324.220 133.200,324.000 133.200 C 323.780 133.200,323.600 132.840,323.600 132.400 C 323.600 131.960,323.420 131.600,323.200 131.600 C 322.980 131.600,322.800 131.240,322.800 130.800 C 322.800 130.360,322.620 130.000,322.400 130.000 C 322.180 130.000,322.000 129.655,322.000 129.233 C 322.000 128.812,321.865 128.407,321.700 128.333 C 321.324 128.166,320.025 126.036,319.729 125.100 C 319.607 124.715,319.348 124.400,319.153 124.400 C 318.959 124.400,318.800 124.040,318.800 123.600 C 318.800 123.160,318.620 122.800,318.400 122.800 C 318.180 122.800,318.000 122.564,318.000 122.275 C 318.000 121.987,317.640 121.364,317.200 120.892 C 316.760 120.420,316.400 119.796,316.400 119.505 C 316.400 119.214,316.040 118.717,315.600 118.400 C 315.160 118.083,314.800 117.543,314.800 117.200 C 314.800 116.857,314.440 116.317,314.000 116.000 C 313.560 115.683,313.200 115.143,313.200 114.800 C 313.200 114.457,312.840 113.917,312.400 113.600 C 311.960 113.283,311.600 112.820,311.600 112.571 C 311.600 112.322,311.060 111.554,310.400 110.863 C 309.740 110.172,309.200 109.447,309.200 109.252 C 309.200 109.056,308.503 108.178,307.651 107.300 C 306.798 106.422,306.033 105.500,305.951 105.252 C 305.749 104.648,299.537 97.910,296.870 95.402 C 295.699 94.301,293.208 91.915,291.334 90.100 C 289.460 88.285,287.763 86.800,287.564 86.800 C 287.364 86.800,286.459 86.080,285.552 85.200 C 284.645 84.320,283.744 83.600,283.548 83.600 C 283.353 83.600,282.628 83.060,281.937 82.400 C 281.246 81.740,280.478 81.200,280.229 81.200 C 279.980 81.200,279.517 80.840,279.200 80.400 C 278.883 79.960,278.343 79.600,278.000 79.600 C 277.657 79.600,277.117 79.240,276.800 78.800 C 276.483 78.360,275.943 78.000,275.600 78.000 C 275.257 78.000,274.717 77.640,274.400 77.200 C 274.083 76.760,273.586 76.400,273.295 76.400 C 273.004 76.400,272.380 76.040,271.908 75.600 C 271.436 75.160,270.813 74.800,270.525 74.800 C 270.236 74.800,270.000 74.620,270.000 74.400 C 270.000 74.180,269.640 74.000,269.200 74.000 C 268.760 74.000,268.400 73.820,268.400 73.600 C 268.400 73.380,268.122 73.200,267.783 73.200 C 267.444 73.200,266.780 72.840,266.308 72.400 C 265.836 71.960,265.213 71.600,264.925 71.600 C 264.636 71.600,264.400 71.420,264.400 71.200 C 264.400 70.980,264.040 70.800,263.600 70.800 C 263.160 70.800,262.800 70.620,262.800 70.400 C 262.800 70.180,262.440 70.000,262.000 70.000 C 261.560 70.000,261.200 69.820,261.200 69.600 C 261.200 69.380,260.840 69.200,260.400 69.200 C 259.960 69.200,259.600 69.020,259.600 68.800 C 259.600 68.580,259.328 68.400,258.995 68.400 C 258.662 68.400,258.032 68.220,257.595 68.000 C 257.158 67.780,256.442 67.420,256.005 67.200 C 255.568 66.980,254.938 66.800,254.605 66.800 C 254.272 66.800,254.000 66.620,254.000 66.400 C 254.000 66.180,253.640 66.000,253.200 66.000 C 252.760 66.000,252.400 65.820,252.400 65.600 C 252.400 65.380,251.860 65.200,251.200 65.200 C 250.540 65.200,250.000 65.020,250.000 64.800 C 250.000 64.580,249.651 64.400,249.224 64.400 C 248.797 64.400,248.336 64.220,248.200 64.000 C 248.064 63.780,247.513 63.600,246.976 63.600 C 246.439 63.600,246.000 63.420,246.000 63.200 C 246.000 62.980,245.460 62.800,244.800 62.800 C 244.140 62.800,243.600 62.620,243.600 62.400 C 243.600 62.180,243.060 62.000,242.400 62.000 C 241.740 62.000,241.200 61.820,241.200 61.600 C 241.200 61.380,240.660 61.200,240.000 61.200 C 239.340 61.200,238.800 61.020,238.800 60.800 C 238.800 60.580,238.080 60.400,237.200 60.400 C 236.320 60.400,235.600 60.220,235.600 60.000 C 235.600 59.780,234.981 59.600,234.224 59.600 C 233.467 59.600,232.736 59.420,232.600 59.200 C 232.464 58.980,231.643 58.800,230.776 58.800 C 229.909 58.800,229.200 58.620,229.200 58.400 C 229.200 58.180,228.300 58.000,227.200 58.000 C 226.100 58.000,225.200 57.820,225.200 57.600 C 225.200 57.380,224.221 57.200,223.024 57.200 C 221.827 57.200,220.736 57.020,220.600 56.800 C 220.464 56.580,219.024 56.400,217.400 56.400 C 215.776 56.400,214.336 56.220,214.200 56.000 C 214.042 55.745,208.604 55.600,199.200 55.600 C 189.796 55.600,184.358 55.745,184.200 56.000 M250.800 98.036 C 251.570 98.234,252.777 98.397,253.481 98.398 C 254.186 98.399,255.176 98.559,255.681 98.752 C 256.187 98.946,257.860 99.519,259.400 100.025 C 269.149 103.229,278.660 110.532,284.682 119.436 C 287.175 123.123,290.400 129.710,290.400 131.116 C 290.400 131.514,290.551 132.011,290.736 132.220 C 290.920 132.429,291.300 133.680,291.579 135.000 C 291.858 136.320,292.247 137.922,292.443 138.560 C 293.762 142.847,292.621 147.963,290.111 149.012 C 286.711 150.432,284.000 146.979,284.000 141.229 C 284.000 140.399,283.839 139.198,283.642 138.560 C 283.445 137.922,282.860 136.006,282.342 134.302 C 281.824 132.598,281.265 131.203,281.100 131.202 C 280.935 131.201,280.800 130.935,280.800 130.612 C 280.800 130.289,280.440 129.389,280.000 128.612 C 279.560 127.835,278.818 126.525,278.352 125.700 C 276.191 121.878,269.443 114.976,265.688 112.748 C 260.997 109.964,254.688 107.200,253.027 107.200 C 252.550 107.200,251.989 107.035,251.780 106.832 C 251.571 106.630,248.983 106.300,246.028 106.099 L 240.656 105.733 239.498 104.366 C 235.344 99.467,241.954 95.765,250.800 98.036 M249.400 112.748 C 252.751 113.298,256.139 114.297,257.845 115.238 C 258.530 115.616,259.520 116.150,260.045 116.425 C 260.570 116.699,261.202 117.031,261.449 117.162 C 262.017 117.463,266.400 120.608,267.202 121.289 C 267.532 121.570,268.612 122.790,269.600 124.000 C 270.588 125.210,271.622 126.438,271.898 126.729 C 272.174 127.019,272.400 127.411,272.400 127.600 C 272.400 127.789,272.627 128.181,272.905 128.471 C 276.125 131.845,279.444 145.220,277.834 148.334 C 275.608 152.639,269.600 150.371,269.600 145.226 C 269.600 138.874,265.076 130.694,259.053 126.157 C 254.527 122.747,250.186 121.171,244.600 120.909 C 240.234 120.704,238.639 119.800,238.215 117.289 C 237.420 112.584,240.583 111.299,249.400 112.748 M248.074 127.655 C 248.444 127.845,249.129 128.000,249.596 128.000 C 256.569 128.000,266.015 142.990,263.020 149.302 C 261.105 153.337,255.204 152.407,255.198 148.069 C 255.190 143.080,251.687 137.709,247.600 136.423 C 246.610 136.111,245.613 135.718,245.385 135.549 C 245.156 135.381,243.820 135.259,242.414 135.279 C 237.100 135.354,235.518 128.641,240.523 127.258 C 241.962 126.860,247.045 127.127,248.074 127.655 M157.552 134.043 C 159.883 134.856,160.130 135.971,159.804 144.223 C 159.418 154.017,159.518 154.277,162.611 151.500 C 163.652 150.565,164.899 149.530,165.382 149.200 C 165.864 148.870,167.146 147.843,168.229 146.917 C 183.011 134.291,184.115 133.582,188.949 133.626 C 192.924 133.662,198.701 137.370,207.400 145.469 C 207.840 145.878,208.672 146.570,209.248 147.007 C 210.754 148.147,215.785 152.248,216.443 152.872 C 216.749 153.162,217.630 153.875,218.400 154.455 C 219.170 155.035,220.189 155.845,220.665 156.255 C 221.141 156.665,223.189 158.350,225.215 160.000 C 227.242 161.650,229.851 163.810,231.013 164.800 C 232.176 165.790,234.088 167.375,235.263 168.322 C 236.439 169.269,239.290 171.591,241.600 173.482 C 252.629 182.510,255.785 185.067,256.906 185.880 C 263.676 190.792,263.751 192.325,257.542 198.900 C 253.994 202.657,253.083 202.533,247.098 197.477 C 243.386 194.341,236.811 188.880,233.933 186.541 C 231.125 184.259,214.380 170.410,212.794 169.057 C 212.241 168.586,211.132 167.708,210.329 167.106 C 209.526 166.504,208.629 165.784,208.335 165.506 C 208.041 165.228,207.141 164.508,206.335 163.906 C 205.529 163.304,204.629 162.582,204.335 162.300 C 204.041 162.019,202.990 161.166,202.000 160.405 C 201.010 159.643,200.110 158.924,200.000 158.805 C 199.890 158.686,198.810 157.790,197.600 156.813 C 196.390 155.836,194.580 154.308,193.578 153.418 C 188.503 148.912,189.027 149.011,185.529 151.900 C 182.373 154.507,177.868 158.232,175.007 160.600 C 173.944 161.480,172.698 162.463,172.237 162.785 C 171.777 163.107,170.729 163.988,169.909 164.742 C 169.088 165.496,168.008 166.396,167.509 166.742 C 167.009 167.088,165.931 167.985,165.114 168.736 C 164.297 169.487,163.103 170.484,162.461 170.951 C 161.006 172.008,152.856 178.620,145.200 184.953 C 135.596 192.898,127.908 199.244,126.732 200.196 C 123.671 202.676,122.205 202.113,117.950 196.825 C 113.395 191.166,113.031 191.788,127.800 179.997 C 131.760 176.835,135.219 173.968,135.487 173.624 C 135.853 173.156,135.985 168.403,136.015 154.600 C 136.058 135.221,136.074 135.027,137.620 134.171 C 138.880 133.473,155.610 133.366,157.552 134.043 M244.405 142.407 C 251.219 145.861,251.260 156.698,244.466 158.733 C 242.558 159.305,238.538 159.348,238.200 158.800 C 238.064 158.580,237.639 158.400,237.255 158.400 C 236.871 158.400,235.909 157.807,235.117 157.082 C 227.037 149.681,234.741 137.509,244.405 142.407 M189.651 157.369 C 190.393 157.682,191.620 158.582,192.378 159.369 C 193.137 160.156,193.953 160.800,194.194 160.800 C 194.434 160.800,195.517 161.700,196.600 162.800 C 197.683 163.900,198.763 164.800,199.000 164.800 C 199.237 164.800,200.317 165.700,201.400 166.800 C 202.483 167.900,203.565 168.800,203.804 168.800 C 204.042 168.800,204.941 169.520,205.800 170.400 C 206.659 171.280,207.595 172.000,207.880 172.000 C 208.165 172.000,209.265 172.900,210.325 174.000 C 211.385 175.100,212.478 176.000,212.752 176.000 C 213.027 176.000,214.129 176.900,215.200 178.000 C 216.271 179.100,217.385 180.000,217.674 180.001 C 217.963 180.001,219.083 180.901,220.162 182.001 C 221.241 183.100,222.328 184.000,222.577 184.000 C 222.826 184.000,223.917 184.900,225.000 186.000 C 226.083 187.100,227.163 188.000,227.400 188.000 C 227.637 188.000,228.717 188.900,229.800 190.000 C 230.883 191.100,231.968 192.000,232.210 192.000 C 232.452 192.000,233.179 192.556,233.825 193.236 C 234.471 193.915,235.482 194.724,236.072 195.032 C 236.662 195.340,238.057 196.467,239.172 197.536 L 241.200 199.480 241.200 237.423 L 241.200 275.366 239.719 276.883 C 238.876 277.746,237.852 278.400,237.342 278.400 C 236.850 278.400,236.336 278.580,236.200 278.800 C 235.787 279.468,201.010 279.336,200.453 278.664 C 200.144 278.291,199.976 272.459,199.904 259.564 L 199.800 241.000 188.800 241.000 L 177.800 241.000 177.696 259.564 C 177.624 272.459,177.456 278.291,177.147 278.664 C 176.787 279.097,173.315 279.200,159.030 279.200 L 141.357 279.200 139.279 278.164 C 138.135 277.595,137.200 276.896,137.200 276.611 C 137.200 276.326,136.840 275.999,136.400 275.884 C 135.607 275.677,135.600 275.339,135.601 238.137 C 135.603 196.304,135.429 198.945,138.282 197.455 C 138.897 197.134,139.929 196.315,140.575 195.636 C 141.221 194.956,141.948 194.400,142.190 194.400 C 142.432 194.400,143.517 193.500,144.600 192.400 C 145.683 191.300,146.766 190.400,147.006 190.400 C 147.247 190.400,148.063 189.753,148.822 188.961 C 149.580 188.170,150.605 187.364,151.100 187.171 C 151.595 186.978,152.000 186.545,152.000 186.210 C 152.000 185.874,152.256 185.600,152.569 185.600 C 152.882 185.600,153.844 184.880,154.707 184.000 C 155.569 183.120,156.497 182.400,156.769 182.400 C 157.041 182.400,157.954 181.680,158.800 180.800 C 159.646 179.920,160.546 179.200,160.802 179.200 C 161.057 179.200,162.171 178.300,163.276 177.200 C 164.382 176.100,165.492 175.197,165.743 175.194 C 165.995 175.190,167.073 174.290,168.139 173.194 C 169.206 172.097,170.294 171.200,170.558 171.200 C 170.822 171.200,171.741 170.480,172.600 169.600 C 173.459 168.720,174.358 168.000,174.596 168.000 C 174.835 168.000,175.917 167.100,177.000 166.000 C 178.083 164.900,179.163 164.000,179.400 164.000 C 179.637 164.000,180.717 163.100,181.800 162.000 C 182.883 160.900,183.957 159.995,184.185 159.988 C 184.413 159.981,185.410 159.267,186.400 158.400 C 188.538 156.528,188.035 156.687,189.651 157.369 " stroke="none" fill="#3688c7" fill-rule="evenodd"></path></g></svg>