<svg id="svg" xmlns="http://www.w3.org/2000/svg" xmlns:xlink="http://www.w3.org/1999/xlink" width="400" height="225" viewBox="0, 0, 400,225"><g id="svgg"><path id="path0" d="M59.397 96.987 C 55.265 98.132,52.031 102.060,50.482 107.817 C 49.818 110.287,49.499 122.571,50.001 126.354 C 50.875 132.931,54.442 138.194,58.984 139.608 C 60.723 140.149,69.691 140.191,71.473 139.667 C 77.934 137.766,80.830 131.228,80.832 118.542 C 80.833 105.887,78.429 99.923,72.292 97.355 C 70.596 96.645,61.561 96.388,59.397 96.987 M87.257 97.023 C 86.951 97.212,86.482 97.749,86.215 98.215 L 85.729 99.063 85.729 119.271 L 85.729 139.479 88.333 139.479 L 90.938 139.479 91.042 124.906 L 91.146 110.333 94.652 115.740 C 96.581 118.713,98.878 122.247,99.756 123.592 C 100.635 124.937,103.315 129.044,105.711 132.719 C 108.108 136.393,110.261 139.534,110.497 139.700 C 111.743 140.572,113.651 139.580,114.144 137.803 C 114.303 137.232,114.373 130.897,114.374 117.135 L 114.375 97.292 111.667 97.292 L 108.958 97.292 108.958 111.907 L 108.958 126.523 108.163 125.293 C 107.725 124.616,106.570 122.844,105.595 121.354 C 104.620 119.865,103.367 117.943,102.810 117.083 C 102.254 116.224,100.663 113.786,99.276 111.667 C 97.889 109.547,95.268 105.536,93.451 102.754 C 89.390 96.533,88.850 96.034,87.257 97.023 M259.813 96.987 C 255.681 98.132,252.448 102.060,250.899 107.817 C 250.235 110.287,249.916 122.571,250.418 126.354 C 251.291 132.931,254.858 138.194,259.401 139.608 C 261.139 140.149,270.108 140.191,271.889 139.667 C 278.351 137.766,281.247 131.228,281.248 118.542 C 281.250 105.887,278.846 99.923,272.708 97.355 C 271.013 96.645,261.977 96.388,259.813 96.987 M287.882 97.023 C 287.576 97.212,287.107 97.749,286.840 98.215 L 286.354 99.063 286.354 119.271 L 286.354 139.479 288.958 139.479 L 291.563 139.479 291.667 124.906 L 291.771 110.333 295.277 115.740 C 297.206 118.713,299.503 122.247,300.381 123.592 C 301.260 124.937,303.940 129.044,306.336 132.719 C 308.733 136.393,310.886 139.534,311.122 139.700 C 312.368 140.572,314.276 139.580,314.769 137.803 C 314.928 137.232,314.998 130.897,314.999 117.135 L 315.000 97.292 312.292 97.292 L 309.583 97.292 309.583 111.907 L 309.583 126.523 308.788 125.293 C 308.350 124.616,307.195 122.844,306.220 121.354 C 305.245 119.865,303.992 117.943,303.435 117.083 C 302.879 116.224,301.288 113.786,299.901 111.667 C 298.514 109.547,295.893 105.536,294.076 102.754 C 290.015 96.533,289.475 96.034,287.882 97.023 M121.564 97.744 C 120.156 98.852,120.218 97.909,120.213 118.205 C 120.208 138.091,120.180 137.612,121.395 138.790 L 122.106 139.479 128.958 139.544 C 139.392 139.643,140.849 139.339,143.768 136.458 C 147.723 132.554,148.854 128.546,148.854 118.438 C 148.854 109.053,148.081 105.667,145.007 101.597 C 144.248 100.591,141.667 98.312,141.667 98.647 C 141.667 98.720,141.522 98.635,141.345 98.458 C 140.087 97.200,123.038 96.585,121.564 97.744 M153.174 109.948 C 153.250 122.086,153.273 122.697,153.721 124.862 C 155.316 132.564,159.002 137.343,164.696 139.095 C 166.581 139.675,179.605 139.677,180.459 139.097 C 181.949 138.086,181.875 139.231,181.875 117.122 L 181.875 97.292 179.271 97.292 L 176.667 97.292 176.667 114.492 L 176.667 131.693 171.406 131.614 C 164.696 131.514,163.196 130.990,161.108 128.021 C 158.748 124.665,158.543 123.129,158.542 108.802 L 158.542 97.292 155.818 97.292 L 153.094 97.292 153.174 109.948 M185.417 101.146 L 185.417 105.000 191.145 105.000 L 196.873 105.000 196.926 122.240 L 196.979 139.479 199.635 139.537 L 202.292 139.596 202.292 122.298 L 202.292 105.000 208.021 105.000 L 213.750 105.000 213.750 101.146 L 213.750 97.292 199.583 97.292 L 185.417 97.292 185.417 101.146 M218.443 98.001 C 217.252 99.264,217.273 98.829,217.337 120.000 L 217.396 139.479 220.000 139.479 L 222.604 139.479 222.657 122.240 L 222.711 105.000 231.323 105.000 C 241.879 105.000,240.689 104.366,240.588 109.933 C 240.451 117.444,239.862 117.917,230.632 117.917 L 224.583 117.917 224.583 121.875 L 224.583 125.833 226.510 125.835 L 228.438 125.836 230.243 128.179 C 231.236 129.467,233.656 132.560,235.621 135.052 L 239.193 139.583 243.126 139.583 C 245.289 139.583,247.102 139.513,247.155 139.427 C 247.208 139.341,245.661 137.255,243.717 134.792 C 235.526 124.414,236.387 125.711,237.601 125.574 C 239.969 125.307,242.856 122.954,244.231 120.170 C 245.632 117.335,245.877 115.957,245.984 110.313 C 246.112 103.539,245.633 101.361,243.508 99.047 C 241.836 97.225,242.422 97.301,230.025 97.296 L 219.112 97.292 218.443 98.001 M320.676 118.385 L 320.729 139.479 323.333 139.479 L 325.938 139.479 325.991 118.385 L 326.044 97.292 323.333 97.292 L 320.623 97.292 320.676 118.385 M336.672 97.653 C 334.751 98.332,332.996 100.657,332.048 103.784 C 331.440 105.787,331.187 128.369,331.737 131.505 C 332.299 134.709,333.438 136.816,335.366 138.215 C 337.084 139.462,337.250 139.479,347.917 139.479 L 357.604 139.479 357.661 135.573 L 357.718 131.667 348.072 131.667 C 337.376 131.667,337.760 131.715,337.165 130.292 C 336.808 129.436,336.735 107.907,337.086 106.646 C 337.534 105.031,336.987 105.111,347.938 105.046 L 357.708 104.988 357.708 101.140 L 357.708 97.292 347.656 97.308 C 339.060 97.322,337.469 97.372,336.672 97.653 M367.562 97.680 C 363.434 99.106,361.354 103.164,361.354 109.792 C 361.354 115.977,363.113 119.777,366.816 121.596 L 368.021 122.188 375.208 122.292 C 383.362 122.410,383.128 122.361,384.000 124.132 C 384.688 125.529,384.686 128.648,383.996 129.956 C 383.056 131.737,383.572 131.665,371.823 131.666 L 361.458 131.667 361.458 135.625 L 361.458 139.583 371.198 139.582 C 381.484 139.580,382.939 139.479,384.570 138.652 C 391.950 134.913,391.690 118.847,384.190 115.153 L 382.823 114.479 375.724 114.375 C 366.677 114.242,366.771 114.292,366.771 109.672 C 366.771 104.981,366.724 105.000,378.327 105.000 L 387.292 105.000 387.292 101.146 L 387.292 97.292 377.969 97.298 C 369.549 97.305,368.541 97.342,367.562 97.680 M71.209 105.123 C 74.530 106.778,75.418 109.577,75.413 118.374 C 75.406 130.478,73.922 132.405,64.729 132.255 C 59.281 132.166,58.270 131.749,56.601 128.902 C 54.501 125.317,54.589 110.797,56.731 107.604 C 58.608 104.806,59.089 104.639,65.324 104.608 C 70.095 104.583,70.134 104.587,71.209 105.123 M271.625 105.123 C 274.947 106.778,275.835 109.577,275.830 118.374 C 275.822 130.478,274.339 132.405,265.146 132.255 C 259.697 132.166,258.687 131.749,257.018 128.902 C 254.917 125.317,255.006 110.797,257.148 107.604 C 259.025 104.806,259.505 104.639,265.740 104.608 C 270.512 104.583,270.550 104.587,271.625 105.123 M139.223 105.600 C 142.576 107.258,143.438 109.903,143.438 118.542 C 143.438 126.897,142.745 129.030,139.392 131.001 L 138.438 131.563 132.031 131.626 L 125.625 131.689 125.625 118.328 L 125.625 104.968 131.927 105.038 C 138.057 105.107,138.256 105.123,139.223 105.600 " stroke="none" fill="#231c23" fill-rule="evenodd"></path><path id="path1" d="M19.326 80.612 C 15.083 81.980,15.145 88.028,19.413 89.177 C 23.290 90.221,26.535 86.085,24.525 82.662 C 23.544 80.990,21.119 80.034,19.326 80.612 M42.683 80.999 C 38.826 83.014,39.856 88.698,44.186 89.291 C 45.631 89.490,46.836 89.058,47.939 87.947 C 51.527 84.332,47.215 78.631,42.683 80.999 M47.059 82.190 C 48.077 83.110,48.459 84.379,48.111 85.687 C 47.148 89.308,42.611 89.549,41.663 86.029 C 40.790 82.785,44.665 80.028,47.059 82.190 " stroke="none" fill="#23a7de" fill-rule="evenodd"></path><path id="path2" d="M18.789 78.854 C 13.222 80.418,12.462 87.947,17.635 90.279 L 18.474 90.658 18.612 101.735 C 18.688 107.828,18.750 116.984,18.751 122.083 C 18.752 132.433,18.728 132.255,20.231 133.033 C 21.944 133.918,21.412 134.384,43.072 113.021 L 47.086 109.063 47.085 99.849 L 47.083 90.636 47.760 90.289 C 53.835 87.181,51.583 78.655,44.688 78.658 C 38.419 78.661,35.824 86.342,40.938 89.758 L 41.979 90.454 42.083 98.717 L 42.188 106.979 37.500 111.563 C 34.922 114.083,30.797 118.134,28.333 120.563 L 23.854 124.981 23.680 107.757 L 23.505 90.533 23.992 90.160 C 26.453 88.274,27.128 87.111,27.137 84.741 C 27.155 80.440,23.162 77.625,18.789 78.854 M22.604 80.778 C 27.006 82.972,25.533 89.375,20.627 89.375 C 17.946 89.375,16.042 87.470,16.042 84.788 C 16.042 81.535,19.673 79.316,22.604 80.778 M46.875 80.844 C 51.169 83.012,49.615 89.375,44.792 89.375 C 41.863 89.375,40.002 87.283,40.252 84.272 C 40.508 81.186,43.987 79.385,46.875 80.844 M41.696 115.052 C 34.670 121.661,19.152 137.035,18.965 137.571 C 18.830 137.957,18.750 141.517,18.750 147.097 L 18.750 156.008 18.024 156.456 C 12.371 159.950,14.693 168.013,21.354 168.019 C 27.603 168.024,30.354 160.923,25.521 157.265 C 24.948 156.831,24.315 156.331,24.115 156.155 C 23.779 155.859,23.750 155.182,23.750 147.638 L 23.750 139.443 31.094 132.279 C 35.133 128.338,39.305 124.275,40.365 123.248 L 42.292 121.382 42.292 138.796 L 42.292 156.210 41.406 156.733 C 35.901 159.984,37.936 167.762,44.375 168.078 C 51.164 168.411,53.978 160.129,48.221 156.755 L 47.311 156.221 47.249 135.663 C 47.181 112.868,47.264 114.177,45.840 113.441 C 44.481 112.738,43.927 112.954,41.696 115.052 " stroke="none" fill="#0c0c1c" fill-rule="evenodd"></path><path id="path3" d="M42.292 51.753 C 37.394 52.622,36.179 53.406,36.157 55.714 C 36.134 58.106,37.670 59.067,40.406 58.370 C 53.127 55.128,65.143 62.140,69.162 75.150 C 70.048 78.018,71.167 78.945,73.010 78.337 C 75.049 77.664,75.536 75.920,74.582 72.708 C 70.339 58.433,56.236 49.281,42.292 51.753 M44.167 61.390 C 42.696 61.537,39.663 62.310,39.018 62.703 C 37.142 63.843,37.178 67.112,39.075 68.013 C 39.887 68.398,40.240 68.381,42.604 67.840 C 50.569 66.021,57.964 70.660,60.535 79.088 C 62.051 84.061,67.375 82.399,66.131 77.340 C 63.607 67.072,54.378 60.369,44.167 61.390 M42.945 71.348 C 40.974 71.797,40.178 72.275,39.635 73.337 C 38.429 75.698,39.780 77.930,42.231 77.629 C 48.159 76.900,50.559 78.190,51.940 82.847 C 53.299 87.431,58.528 85.567,57.510 80.861 C 56.084 74.266,49.375 69.884,42.945 71.348 M43.752 81.915 C 41.610 83.015,41.018 85.676,42.531 87.400 C 44.005 89.078,46.544 88.607,47.670 86.446 C 49.153 83.602,46.481 80.513,43.752 81.915 M41.451 115.156 L 40.313 116.354 41.510 115.215 C 42.169 114.589,42.708 114.050,42.708 114.018 C 42.708 113.863,42.509 114.043,41.451 115.156 M33.638 115.260 L 32.604 116.354 33.698 115.320 C 34.299 114.752,34.792 114.260,34.792 114.227 C 34.792 114.071,34.599 114.244,33.638 115.260 M38.013 117.969 L 36.979 119.063 38.073 118.029 C 39.089 117.068,39.262 116.875,39.107 116.875 C 39.074 116.875,38.582 117.367,38.013 117.969 M33.013 123.385 L 31.979 124.479 33.073 123.445 C 33.674 122.877,34.167 122.385,34.167 122.352 C 34.167 122.196,33.974 122.369,33.013 123.385 M24.889 123.802 L 23.646 125.104 24.948 123.861 C 26.157 122.706,26.345 122.500,26.191 122.500 C 26.159 122.500,25.573 123.086,24.889 123.802 M37.388 126.094 L 36.354 127.188 37.448 126.154 C 38.049 125.585,38.542 125.093,38.542 125.060 C 38.542 124.904,38.349 125.077,37.388 126.094 M29.471 126.302 L 28.438 127.396 29.531 126.362 C 30.133 125.793,30.625 125.301,30.625 125.268 C 30.625 125.113,30.432 125.286,29.471 126.302 M24.471 131.719 L 23.438 132.813 24.531 131.779 C 25.133 131.210,25.625 130.718,25.625 130.685 C 25.625 130.529,25.432 130.702,24.471 131.719 M28.846 134.427 L 27.813 135.521 28.906 134.487 C 29.508 133.918,30.000 133.426,30.000 133.393 C 30.000 133.238,29.807 133.411,28.846 134.427 " stroke="none" fill="#040b0b" fill-rule="evenodd"></path><path id="path4" d="" stroke="none" fill="#175470" fill-rule="evenodd"></path></g></svg>