<svg id="svg" xmlns="http://www.w3.org/2000/svg" xmlns:xlink="http://www.w3.org/1999/xlink" width="400" height="285.7142857142857" viewBox="0, 0, 400,285.7142857142857"><g id="svgg"><path id="path0" d="M119.746 104.226 C 118.913 105.784,119.618 106.533,122.107 106.731 C 128.558 107.246,134.846 112.761,135.571 118.539 C 135.991 121.889,136.737 122.805,138.244 121.817 C 141.050 119.979,136.162 109.872,130.841 106.509 C 127.064 104.122,120.522 102.776,119.746 104.226 M119.929 109.166 C 118.229 110.156,119.528 111.846,122.164 112.073 C 126.315 112.430,129.978 116.030,130.477 120.243 C 130.698 122.109,131.611 123.022,132.741 122.507 C 135.442 121.277,132.148 113.435,127.849 110.864 C 125.245 109.307,121.182 108.436,119.929 109.166 M119.592 114.735 C 118.612 115.714,119.290 117.143,120.734 117.143 C 122.932 117.143,124.957 118.762,125.299 120.794 C 125.595 122.547,125.718 122.820,126.300 123.005 C 129.492 124.018,128.797 118.057,125.435 115.576 C 123.694 114.292,120.495 113.831,119.592 114.735 M80.914 116.629 C 80.667 116.876,80.571 118.857,80.571 123.740 L 80.571 130.509 77.786 132.725 C 72.489 136.939,72.421 137.068,74.401 139.214 C 75.950 140.895,76.263 140.897,78.257 139.248 C 79.137 138.520,82.159 136.045,84.971 133.748 C 87.784 131.451,92.150 127.866,94.673 125.781 C 97.196 123.697,99.352 122.025,99.465 122.067 C 99.578 122.109,101.255 123.449,103.192 125.046 C 105.129 126.643,109.350 130.115,112.571 132.761 C 115.793 135.408,119.239 138.248,120.229 139.073 C 122.353 140.840,122.899 140.909,124.131 139.564 C 126.426 137.059,126.480 137.180,121.112 132.827 C 118.711 130.879,115.582 128.321,114.159 127.142 C 97.903 113.675,100.119 114.321,92.357 120.781 L 89.143 123.456 89.143 120.320 C 89.143 116.185,89.253 116.286,84.751 116.286 C 82.415 116.286,81.144 116.399,80.914 116.629 M117.966 120.233 C 117.222 120.898,117.065 121.250,117.065 122.256 C 117.065 126.194,122.821 127.089,123.339 123.231 C 123.749 120.170,120.232 118.208,117.966 120.233 M98.429 125.220 C 97.654 125.790,88.593 133.192,86.856 134.675 C 83.784 137.296,81.439 139.143,81.182 139.143 C 80.374 139.143,80.286 140.567,80.286 153.573 C 80.286 163.856,80.367 166.978,80.643 167.247 C 81.583 168.165,82.722 168.297,89.002 168.220 L 95.286 168.143 95.362 161.357 L 95.439 154.571 99.429 154.571 L 103.418 154.571 103.495 161.357 L 103.571 168.143 110.328 168.143 C 119.379 168.143,118.286 170.167,118.286 153.412 L 118.286 139.771 117.357 139.020 C 116.846 138.607,115.721 137.719,114.857 137.046 C 113.993 136.374,110.228 133.292,106.490 130.197 C 102.753 127.103,99.603 124.576,99.490 124.580 C 99.378 124.585,98.900 124.873,98.429 125.220 M169.311 125.450 L 168.571 126.330 168.571 136.000 L 168.571 145.670 169.311 146.550 C 169.949 147.307,170.241 147.429,171.429 147.429 C 173.851 147.429,174.286 146.577,174.286 141.835 L 174.286 138.000 178.000 138.000 L 181.714 138.000 181.714 141.835 C 181.714 145.544,181.739 145.699,182.454 146.550 C 183.533 147.832,185.609 147.832,186.689 146.550 L 187.429 145.670 187.429 136.000 L 187.429 126.330 186.689 125.450 C 185.609 124.168,183.533 124.168,182.454 125.450 C 181.753 126.284,181.714 126.499,181.714 129.593 L 181.714 132.857 178.000 132.857 L 174.286 132.857 174.286 129.593 C 174.286 125.487,173.765 124.571,171.429 124.571 C 170.241 124.571,169.949 124.693,169.311 125.450 M235.558 125.273 C 234.917 125.914,234.857 126.195,234.857 128.558 C 234.857 129.980,234.809 131.143,234.749 131.143 C 234.690 131.143,234.180 130.950,233.615 130.714 C 232.393 130.203,229.612 130.154,228.257 130.619 C 222.053 132.747,222.184 145.082,228.432 147.144 C 229.842 147.609,233.177 147.374,234.144 146.740 C 234.840 146.284,234.914 146.289,235.620 146.844 C 236.709 147.701,238.669 147.643,239.584 146.727 L 240.286 146.026 240.286 136.000 L 240.286 125.974 239.584 125.273 C 238.594 124.282,236.549 124.282,235.558 125.273 M316.416 125.558 C 315.875 126.099,315.714 126.560,315.714 127.571 C 315.714 128.583,315.875 129.044,316.416 129.584 L 317.117 130.286 316.416 130.987 L 315.714 131.688 315.714 138.857 L 315.714 146.026 316.416 146.727 C 316.956 147.268,317.417 147.429,318.429 147.429 C 319.440 147.429,319.901 147.268,320.442 146.727 L 321.143 146.026 321.143 138.857 L 321.143 131.688 320.442 130.987 L 319.740 130.286 320.442 129.584 C 322.214 127.812,320.955 124.857,318.429 124.857 C 317.417 124.857,316.956 125.018,316.416 125.558 M260.987 125.844 C 260.375 126.456,260.286 126.802,260.286 128.558 C 260.286 130.356,260.227 130.571,259.735 130.571 C 258.999 130.571,258.000 131.887,258.000 132.857 C 258.000 133.814,258.995 135.143,259.711 135.143 C 260.200 135.143,260.246 135.506,260.334 140.071 C 260.440 145.592,260.601 146.114,262.476 147.003 C 263.944 147.700,267.935 147.516,269.026 146.702 L 269.807 146.119 270.462 146.774 C 271.406 147.718,273.475 147.694,274.442 146.727 C 275.111 146.058,275.143 145.865,275.143 142.456 C 275.143 136.607,275.834 134.730,277.744 135.396 C 278.246 135.571,279.064 135.714,279.563 135.714 L 280.469 135.714 280.344 138.098 C 280.032 144.041,283.071 147.429,288.714 147.429 C 294.050 147.429,297.143 144.284,297.143 138.857 C 297.143 131.323,288.615 127.280,282.950 132.129 L 281.783 133.129 281.611 132.267 C 281.290 130.666,276.871 129.564,275.270 130.686 C 274.781 131.029,274.621 131.029,274.152 130.686 C 273.349 130.099,271.337 130.180,270.532 130.831 C 269.868 131.368,269.856 131.471,269.769 137.261 C 269.682 143.128,269.680 143.145,269.085 142.826 C 268.756 142.650,267.935 142.569,267.260 142.645 C 265.713 142.819,265.714 142.822,265.714 138.548 L 265.714 135.143 266.533 135.143 C 266.983 135.143,267.690 134.876,268.104 134.551 C 269.714 133.285,268.705 130.571,266.624 130.571 L 265.714 130.571 265.714 128.558 C 265.714 125.340,263.031 123.800,260.987 125.844 M172.836 126.181 C 173.360 126.847,173.429 127.327,173.429 130.324 L 173.429 133.714 178.000 133.714 L 182.571 133.714 182.571 130.324 C 182.571 126.454,182.990 125.429,184.571 125.429 C 186.489 125.429,186.571 125.862,186.571 136.000 C 186.571 146.138,186.489 146.571,184.571 146.571 C 182.928 146.571,182.571 145.596,182.571 141.104 L 182.571 137.143 178.000 137.143 L 173.429 137.143 173.429 141.104 C 173.429 145.596,173.072 146.571,171.429 146.571 C 169.511 146.571,169.429 146.138,169.429 136.000 C 169.429 125.862,169.511 125.429,171.429 125.429 C 171.969 125.429,172.444 125.682,172.836 126.181 M238.857 126.000 C 239.405 126.548,239.429 126.952,239.429 136.000 C 239.429 145.048,239.405 145.452,238.857 146.000 C 237.782 147.075,235.714 146.324,235.714 144.859 C 235.714 144.351,235.575 144.395,234.430 145.270 C 229.645 148.922,224.132 144.714,224.655 137.809 C 225.109 131.804,230.932 128.955,234.929 132.783 L 235.714 133.535 235.714 130.053 C 235.714 126.222,236.033 125.429,237.571 125.429 C 237.964 125.429,238.543 125.686,238.857 126.000 M319.714 126.286 C 320.846 127.417,320.023 129.429,318.429 129.429 C 317.512 129.429,316.571 128.488,316.571 127.571 C 316.571 126.654,317.512 125.714,318.429 125.714 C 318.821 125.714,319.400 125.971,319.714 126.286 M264.286 126.571 C 264.756 127.041,264.857 127.524,264.857 129.286 L 264.857 131.429 265.906 131.429 C 267.055 131.429,268.000 132.086,268.000 132.885 C 268.000 133.595,266.912 134.286,265.794 134.286 L 264.857 134.286 264.857 138.447 C 264.857 143.545,264.973 143.848,266.827 143.602 C 268.447 143.387,269.245 143.834,269.099 144.873 C 268.890 146.347,265.132 147.135,263.041 146.143 C 261.416 145.372,261.295 144.927,261.191 139.357 L 261.097 134.286 260.412 134.286 C 259.997 134.286,259.543 134.004,259.259 133.571 C 258.649 132.640,259.314 131.429,260.435 131.429 C 261.125 131.429,261.143 131.376,261.143 129.286 C 261.143 126.897,261.650 126.000,263.000 126.000 C 263.393 126.000,263.971 126.257,264.286 126.571 M194.183 130.752 C 187.345 132.852,187.434 144.939,194.302 146.979 C 199.316 148.467,204.333 146.366,205.550 142.269 C 207.908 134.327,202.008 128.349,194.183 130.752 M207.735 131.039 C 207.172 131.754,207.143 132.141,207.143 138.909 L 207.143 146.026 207.844 146.727 C 208.385 147.268,208.845 147.429,209.857 147.429 C 212.285 147.429,212.571 146.834,212.572 141.799 C 212.572 137.079,212.896 135.893,214.372 135.192 C 216.335 134.259,216.857 135.579,216.857 141.478 C 216.857 146.758,217.183 147.429,219.751 147.429 C 222.105 147.429,222.286 146.921,222.286 140.290 C 222.286 134.318,222.110 133.242,220.918 131.899 C 219.495 130.296,215.467 129.745,213.291 130.855 C 212.176 131.423,212.174 131.423,211.569 130.855 C 210.619 129.962,208.502 130.064,207.735 131.039 M242.987 130.987 C 242.213 131.761,241.905 141.617,242.579 144.043 C 243.397 146.989,248.760 148.583,251.598 146.723 C 252.307 146.258,252.368 146.263,252.974 146.833 C 253.952 147.752,256.057 147.666,256.836 146.676 C 257.399 145.960,257.429 145.573,257.429 138.806 L 257.429 131.688 256.727 130.987 C 255.832 130.091,253.831 130.012,252.817 130.831 C 252.168 131.356,252.138 131.557,252.000 136.230 C 251.846 141.473,251.691 141.978,250.053 142.604 C 248.249 143.294,247.714 141.805,247.714 136.087 C 247.714 131.798,247.697 131.671,247.013 130.987 C 246.022 129.996,243.978 129.996,242.987 130.987 M299.164 131.039 C 298.601 131.754,298.571 132.141,298.571 138.909 L 298.571 146.026 299.273 146.727 C 299.814 147.268,300.274 147.429,301.286 147.429 C 303.713 147.429,304.000 146.834,304.000 141.799 C 304.001 137.079,304.324 135.893,305.801 135.192 C 307.764 134.259,308.286 135.579,308.286 141.478 C 308.286 146.758,308.612 147.429,311.179 147.429 C 313.534 147.429,313.714 146.921,313.714 140.290 C 313.714 134.318,313.539 133.242,312.346 131.899 C 310.924 130.296,306.895 129.745,304.719 130.855 C 303.605 131.423,303.602 131.423,302.997 130.855 C 302.047 129.962,299.930 130.064,299.164 131.039 M327.998 130.537 C 320.803 132.886,320.546 144.900,327.646 147.037 C 331.594 148.225,336.356 146.915,338.023 144.181 C 340.292 140.461,336.148 137.436,333.540 140.909 C 331.211 144.010,328.152 142.866,328.152 138.894 C 328.152 134.930,330.815 133.757,333.384 136.590 C 336.344 139.853,340.087 136.784,337.604 133.129 C 336.120 130.946,330.988 129.561,327.998 130.537 M343.396 130.680 C 339.278 132.151,338.288 136.999,341.641 139.278 L 342.704 140.000 341.901 140.000 C 340.059 140.000,338.987 142.105,339.818 144.094 C 341.747 148.710,352.500 148.573,354.267 143.910 C 355.171 141.523,354.398 139.030,352.373 137.804 C 351.555 137.309,351.429 137.145,351.865 137.144 C 353.977 137.139,354.519 133.967,352.716 132.164 C 351.008 130.456,346.176 129.686,343.396 130.680 M200.260 131.590 C 205.285 133.083,206.884 140.560,203.008 144.436 C 199.171 148.273,191.932 146.689,190.447 141.689 C 188.427 134.886,193.562 129.601,200.260 131.590 M210.984 131.778 C 211.228 132.127,211.429 132.653,211.429 132.946 C 211.429 133.415,211.540 133.385,212.357 132.696 C 215.225 130.278,219.304 130.765,220.786 133.703 C 222.463 137.031,221.578 146.571,219.592 146.571 C 217.958 146.571,217.755 145.873,217.650 139.903 L 217.571 135.378 216.734 134.658 C 216.052 134.072,215.691 133.966,214.783 134.088 C 212.292 134.422,211.714 135.776,211.714 141.277 C 211.714 145.839,211.457 146.571,209.857 146.571 C 208.120 146.571,208.000 146.078,208.000 138.921 C 208.000 131.691,208.121 131.143,209.714 131.143 C 210.243 131.143,210.699 131.371,210.984 131.778 M246.286 131.714 C 246.808 132.237,246.857 132.667,246.857 136.723 C 246.857 141.606,247.151 142.899,248.392 143.464 C 249.429 143.936,250.925 143.544,251.879 142.549 L 252.714 141.677 252.857 136.815 C 252.986 132.425,253.054 131.913,253.555 131.548 C 254.336 130.977,255.331 131.045,256.000 131.714 C 256.778 132.493,256.889 144.849,256.127 145.936 C 255.242 147.200,253.143 146.433,253.143 144.846 L 253.143 144.066 252.081 145.039 C 249.606 147.306,245.800 147.039,243.875 144.462 C 242.951 143.226,242.800 132.629,243.693 131.735 C 244.443 130.986,245.548 130.977,246.286 131.714 M273.551 131.592 C 273.798 131.839,274.000 132.289,274.000 132.592 C 274.000 133.328,274.068 133.303,275.229 132.143 C 276.371 131.000,277.573 130.837,279.356 131.583 C 281.819 132.611,281.138 135.374,278.609 134.616 C 275.201 133.595,274.306 135.084,274.293 141.786 C 274.284 146.350,273.085 147.942,271.128 145.985 C 270.253 145.110,270.378 132.198,271.269 131.548 C 271.999 131.015,272.993 131.034,273.551 131.592 M291.403 131.590 C 297.900 133.520,297.900 144.195,291.403 146.124 C 285.842 147.775,281.143 144.447,281.143 138.857 C 281.143 133.269,285.844 129.940,291.403 131.590 M302.412 131.778 C 302.657 132.127,302.857 132.653,302.857 132.946 C 302.857 133.415,302.969 133.385,303.786 132.696 C 306.654 130.278,310.733 130.765,312.214 133.703 C 313.892 137.031,313.007 146.571,311.020 146.571 C 309.386 146.571,309.183 145.873,309.079 139.903 L 309.000 135.378 308.163 134.658 C 307.480 134.072,307.119 133.966,306.212 134.088 C 303.721 134.422,303.143 135.776,303.143 141.277 C 303.143 145.839,302.886 146.571,301.286 146.571 C 299.548 146.571,299.429 146.078,299.429 138.921 C 299.429 131.691,299.549 131.143,301.143 131.143 C 301.671 131.143,302.127 131.371,302.412 131.778 M319.714 131.714 C 320.253 132.253,320.286 132.667,320.286 138.857 C 320.286 146.085,320.169 146.571,318.429 146.571 C 316.689 146.571,316.571 146.085,316.571 138.857 C 316.571 131.629,316.689 131.143,318.429 131.143 C 318.821 131.143,319.400 131.400,319.714 131.714 M334.812 132.146 C 337.090 133.386,338.057 135.404,336.956 136.620 C 336.176 137.482,335.268 137.265,334.228 135.970 C 330.944 131.884,326.440 134.605,327.275 140.171 C 327.890 144.275,332.332 144.910,334.613 141.219 C 336.046 138.899,338.556 140.973,337.286 143.428 C 334.975 147.896,326.663 147.517,324.274 142.834 C 320.648 135.727,327.892 128.379,334.812 132.146 M349.647 131.578 C 351.556 132.145,352.857 133.421,352.857 134.726 C 352.857 136.659,351.304 136.782,349.399 135.000 C 347.909 133.607,346.633 133.332,345.143 134.083 C 343.271 135.026,344.365 136.327,347.733 137.163 C 354.246 138.779,355.917 142.999,351.118 145.713 C 346.756 148.179,337.954 144.591,340.969 141.576 C 341.986 140.559,342.397 140.663,343.963 142.330 C 345.662 144.140,347.762 144.583,349.214 143.436 C 350.935 142.078,350.087 141.074,346.287 139.973 C 341.945 138.715,340.571 137.653,340.571 135.557 C 340.571 132.194,345.074 130.220,349.647 131.578 M196.120 134.262 C 193.539 135.372,192.882 140.217,195.000 142.528 C 197.126 144.848,200.801 143.472,201.296 140.171 C 201.914 136.051,199.189 132.941,196.120 134.262 M230.352 134.351 C 227.706 135.626,227.670 141.933,230.301 143.294 C 232.964 144.671,235.436 142.577,235.422 138.957 C 235.408 135.243,233.014 133.068,230.352 134.351 M287.262 134.262 C 284.681 135.372,284.025 140.217,286.143 142.528 C 288.269 144.848,291.944 143.472,292.439 140.171 C 293.057 136.051,290.332 132.941,287.262 134.262 M348.504 135.568 L 349.571 136.565 348.571 136.380 C 346.122 135.928,344.721 135.080,345.913 134.771 C 347.045 134.478,347.480 134.612,348.504 135.568 M199.360 135.788 C 200.808 137.139,200.846 140.221,199.435 141.801 C 197.900 143.518,195.503 142.684,194.834 140.201 C 193.846 136.531,196.933 133.522,199.360 135.788 M232.836 135.275 C 235.104 136.448,235.073 141.283,232.789 142.464 C 230.187 143.809,228.100 139.338,229.904 136.284 C 230.686 134.959,231.611 134.641,232.836 135.275 M290.503 135.788 C 291.950 137.139,291.989 140.221,290.578 141.801 C 289.043 143.518,286.646 142.684,285.977 140.201 C 284.989 136.531,288.075 133.522,290.503 135.788 M344.743 140.552 C 345.199 140.699,346.311 141.024,347.214 141.274 C 348.959 141.759,349.316 142.306,348.256 142.873 C 347.003 143.544,345.573 142.838,344.022 140.786 C 343.585 140.208,343.629 140.194,344.743 140.552 " stroke="none" fill="#fbfbfb" fill-rule="evenodd"></path><path id="path1" d="M97.294 83.866 C 57.666 90.276,39.117 136.056,63.168 168.089 C 76.470 185.805,100.498 193.296,121.791 186.366 C 153.338 176.099,167.623 138.951,151.187 109.923 C 143.749 96.787,130.733 87.418,115.514 84.248 C 111.762 83.466,101.141 83.244,97.294 83.866 M127.331 104.754 C 133.815 107.317,138.303 113.083,138.786 119.470 C 138.920 121.236,138.882 121.399,138.244 121.817 C 136.737 122.805,135.991 121.889,135.571 118.539 C 134.846 112.761,128.558 107.246,122.107 106.731 C 119.618 106.533,118.913 105.784,119.746 104.226 C 120.214 103.353,124.549 103.655,127.331 104.754 M124.309 109.381 C 129.702 110.789,134.682 117.247,133.625 121.462 C 133.077 123.641,130.774 122.750,130.477 120.243 C 129.978 116.030,126.315 112.430,122.164 112.073 C 119.839 111.873,119.429 111.627,119.429 110.433 C 119.429 108.775,120.831 108.473,124.309 109.381 M123.440 114.570 C 125.657 115.186,127.721 117.481,128.238 119.905 C 128.707 122.103,127.838 123.493,126.300 123.005 C 125.718 122.820,125.595 122.547,125.299 120.794 C 124.957 118.762,122.932 117.143,120.734 117.143 C 119.727 117.143,119.143 116.580,119.143 115.611 C 119.143 114.407,121.125 113.927,123.440 114.570 M88.694 116.735 C 89.048 117.088,89.143 117.850,89.143 120.320 L 89.143 123.456 92.357 120.781 C 100.119 114.321,97.903 113.675,114.159 127.142 C 115.582 128.321,118.711 130.879,121.112 132.827 C 126.480 137.180,126.426 137.059,124.131 139.564 C 122.899 140.909,122.353 140.840,120.229 139.073 C 119.239 138.248,115.793 135.408,112.571 132.761 C 109.350 130.115,105.129 126.643,103.192 125.046 C 101.255 123.449,99.578 122.109,99.465 122.067 C 99.352 122.025,97.196 123.697,94.673 125.781 C 92.150 127.866,87.784 131.451,84.971 133.748 C 82.159 136.045,79.137 138.520,78.257 139.248 C 76.263 140.897,75.950 140.895,74.401 139.214 C 72.421 137.068,72.489 136.939,77.786 132.725 L 80.571 130.509 80.571 123.740 C 80.571 118.857,80.667 116.876,80.914 116.629 C 81.471 116.072,88.121 116.162,88.694 116.735 M121.724 119.862 C 122.882 120.461,123.529 121.812,123.339 123.231 C 122.821 127.089,117.065 126.194,117.065 122.256 C 117.065 119.971,119.507 118.716,121.724 119.862 M106.490 130.197 C 110.228 133.292,113.993 136.374,114.857 137.046 C 115.721 137.719,116.846 138.607,117.357 139.020 L 118.286 139.771 118.286 153.412 C 118.286 170.167,119.379 168.143,110.328 168.143 L 103.571 168.143 103.495 161.357 L 103.418 154.571 99.429 154.571 L 95.439 154.571 95.362 161.357 L 95.286 168.143 89.002 168.220 C 82.722 168.297,81.583 168.165,80.643 167.247 C 80.367 166.978,80.286 163.856,80.286 153.573 C 80.286 140.567,80.374 139.143,81.182 139.143 C 81.439 139.143,83.784 137.296,86.856 134.675 C 91.627 130.603,99.146 124.596,99.490 124.580 C 99.603 124.576,102.753 127.103,106.490 130.197 M170.021 126.181 C 169.450 126.907,169.429 127.261,169.429 136.000 C 169.429 146.138,169.511 146.571,171.429 146.571 C 173.072 146.571,173.429 145.596,173.429 141.104 L 173.429 137.143 178.000 137.143 L 182.571 137.143 182.571 141.104 C 182.571 145.596,182.928 146.571,184.571 146.571 C 186.489 146.571,186.571 146.138,186.571 136.000 C 186.571 125.862,186.489 125.429,184.571 125.429 C 182.990 125.429,182.571 126.454,182.571 130.324 L 182.571 133.714 178.000 133.714 L 173.429 133.714 173.429 130.324 C 173.429 126.454,173.010 125.429,171.429 125.429 C 170.888 125.429,170.413 125.682,170.021 126.181 M236.286 126.000 C 235.777 126.509,235.714 126.952,235.714 130.053 L 235.714 133.535 234.929 132.783 C 230.932 128.955,225.109 131.804,224.655 137.809 C 224.132 144.714,229.645 148.922,234.430 145.270 C 235.575 144.395,235.714 144.351,235.714 144.859 C 235.714 145.649,236.714 146.571,237.571 146.571 C 239.399 146.571,239.429 146.402,239.429 136.000 C 239.429 125.598,239.399 125.429,237.571 125.429 C 237.179 125.429,236.600 125.686,236.286 126.000 M317.143 126.286 C 316.011 127.417,316.834 129.429,318.429 129.429 C 319.346 129.429,320.286 128.488,320.286 127.571 C 320.286 126.654,319.346 125.714,318.429 125.714 C 318.036 125.714,317.457 125.971,317.143 126.286 M261.714 126.571 C 261.244 127.041,261.143 127.524,261.143 129.286 C 261.143 131.376,261.125 131.429,260.435 131.429 C 259.314 131.429,258.649 132.640,259.259 133.571 C 259.543 134.004,259.997 134.286,260.412 134.286 L 261.097 134.286 261.191 139.357 C 261.295 144.927,261.416 145.372,263.041 146.143 C 265.132 147.135,268.890 146.347,269.099 144.873 C 269.245 143.834,268.447 143.387,266.827 143.602 C 264.973 143.848,264.857 143.545,264.857 138.447 L 264.857 134.286 265.794 134.286 C 266.912 134.286,268.000 133.595,268.000 132.885 C 268.000 132.086,267.055 131.429,265.906 131.429 L 264.857 131.429 264.857 129.286 C 264.857 126.897,264.350 126.000,263.000 126.000 C 262.607 126.000,262.029 126.257,261.714 126.571 M194.763 131.607 C 189.852 133.116,188.315 140.616,192.135 144.436 C 195.972 148.273,203.210 146.689,204.695 141.689 C 206.724 134.856,201.488 129.541,194.763 131.607 M208.445 131.778 C 207.683 132.866,207.793 145.222,208.571 146.000 C 210.603 148.032,211.714 146.362,211.714 141.277 C 211.714 135.776,212.292 134.422,214.783 134.088 C 215.691 133.966,216.052 134.072,216.734 134.658 L 217.571 135.378 217.650 139.903 C 217.755 145.873,217.958 146.571,219.592 146.571 C 221.578 146.571,222.463 137.031,220.786 133.703 C 219.304 130.765,215.225 130.278,212.357 132.696 C 211.540 133.385,211.429 133.415,211.429 132.946 C 211.429 132.011,210.603 131.143,209.714 131.143 C 209.186 131.143,208.730 131.371,208.445 131.778 M243.693 131.735 C 242.800 132.629,242.951 143.226,243.875 144.462 C 245.800 147.039,249.606 147.306,252.081 145.039 L 253.143 144.066 253.143 144.846 C 253.143 146.433,255.242 147.200,256.127 145.936 C 256.889 144.849,256.778 132.493,256.000 131.714 C 255.331 131.045,254.336 130.977,253.555 131.548 C 253.054 131.913,252.986 132.425,252.857 136.815 L 252.714 141.677 251.879 142.549 C 250.925 143.544,249.429 143.936,248.392 143.464 C 247.151 142.899,246.857 141.606,246.857 136.723 C 246.857 131.316,245.792 129.637,243.693 131.735 M271.269 131.548 C 270.378 132.198,270.253 145.110,271.128 145.985 C 273.085 147.942,274.284 146.350,274.293 141.786 C 274.306 135.084,275.201 133.595,278.609 134.616 C 281.138 135.374,281.819 132.611,279.356 131.583 C 277.573 130.837,276.371 131.000,275.229 132.143 C 274.068 133.303,274.000 133.328,274.000 132.592 C 274.000 131.336,272.398 130.723,271.269 131.548 M285.906 131.607 C 280.994 133.116,279.458 140.616,283.278 144.436 C 287.115 148.273,294.353 146.689,295.838 141.689 C 297.867 134.856,292.631 129.541,285.906 131.607 M299.873 131.778 C 299.111 132.866,299.222 145.222,300.000 146.000 C 302.032 148.032,303.143 146.362,303.143 141.277 C 303.143 135.776,303.721 134.422,306.212 134.088 C 307.119 133.966,307.480 134.072,308.163 134.658 L 309.000 135.378 309.079 139.903 C 309.183 145.873,309.386 146.571,311.020 146.571 C 313.007 146.571,313.892 137.031,312.214 133.703 C 310.733 130.765,306.654 130.278,303.786 132.696 C 302.969 133.385,302.857 133.415,302.857 132.946 C 302.857 132.011,302.032 131.143,301.143 131.143 C 300.614 131.143,300.158 131.371,299.873 131.778 M317.143 131.714 C 316.605 132.253,316.571 132.667,316.571 138.857 C 316.571 146.085,316.689 146.571,318.429 146.571 C 320.169 146.571,320.286 146.085,320.286 138.857 C 320.286 131.629,320.169 131.143,318.429 131.143 C 318.036 131.143,317.457 131.400,317.143 131.714 M328.217 131.532 C 321.839 133.912,321.773 144.261,328.123 146.152 C 332.543 147.468,337.714 145.184,337.714 141.916 C 337.714 140.198,335.545 139.710,334.613 141.219 C 332.332 144.910,327.890 144.275,327.275 140.171 C 326.440 134.605,330.944 131.884,334.228 135.970 C 336.155 138.370,338.494 136.506,336.864 133.869 C 335.556 131.752,330.958 130.509,328.217 131.532 M344.218 131.427 C 340.383 132.582,339.315 136.647,342.353 138.525 C 342.869 138.844,344.640 139.496,346.287 139.973 C 350.087 141.074,350.935 142.078,349.214 143.436 C 347.762 144.583,345.662 144.140,343.963 142.330 C 342.397 140.663,341.986 140.559,340.969 141.576 C 337.954 144.591,346.756 148.179,351.118 145.713 C 355.917 142.999,354.246 138.779,347.733 137.163 C 344.365 136.327,343.271 135.026,345.143 134.083 C 346.633 133.332,347.909 133.607,349.399 135.000 C 351.304 136.782,352.857 136.659,352.857 134.726 C 352.857 132.214,347.897 130.320,344.218 131.427 M200.183 135.230 C 201.867 137.067,201.847 140.669,200.143 142.528 C 198.017 144.848,194.341 143.472,193.846 140.171 C 193.102 135.210,197.221 131.998,200.183 135.230 M233.465 134.448 C 236.025 135.771,236.111 141.641,233.594 143.176 C 230.798 144.880,228.040 142.377,228.357 138.422 C 228.646 134.822,230.859 133.100,233.465 134.448 M291.326 135.230 C 293.010 137.067,292.990 140.669,291.286 142.528 C 289.160 144.848,285.484 143.472,284.989 140.171 C 284.245 135.210,288.364 131.998,291.326 135.230 " stroke="none" fill="#3d73b8" fill-rule="evenodd"></path></g></svg>